<?xml version="1.0" encoding="UTF-8"?>
<svg id="b" data-name="Camada 2" xmlns="http://www.w3.org/2000/svg" xmlns:xlink="http://www.w3.org/1999/xlink" viewBox="0 0 102.75 62.1">
  <defs>
    <linearGradient id="d" data-name="Gradiente sem nome 61" x1="-.34" y1="31.05" x2="79.66" y2="31.05" gradientUnits="userSpaceOnUse">
      <stop offset=".08" stop-color="#1d5292"/>
      <stop offset=".18" stop-color="#27639f"/>
      <stop offset=".29" stop-color="#2e70a9"/>
      <stop offset=".4" stop-color="#3175ad"/>
      <stop offset=".78" stop-color="#4a9fa7"/>
      <stop offset="1" stop-color="#56b2a5"/>
    </linearGradient>
    <linearGradient id="e" data-name="Gradiente sem nome 101" x1="39.93" y1="14.85" x2="39.93" y2="37" gradientUnits="userSpaceOnUse">
      <stop offset=".37" stop-color="#3175ad"/>
      <stop offset=".64" stop-color="#3f8da9"/>
      <stop offset="1" stop-color="#56b2a5"/>
    </linearGradient>
    <linearGradient id="f" data-name="Gradiente sem nome 96" x1="66.68" y1="33.46" x2="88.26" y2="33.46" gradientUnits="userSpaceOnUse">
      <stop offset=".32" stop-color="#349ea8"/>
      <stop offset=".39" stop-color="#40a5a6"/>
      <stop offset=".5" stop-color="#4caca5"/>
      <stop offset=".65" stop-color="#53b0a5"/>
      <stop offset="1" stop-color="#56b2a5"/>
    </linearGradient>
  </defs>
  <g id="c" data-name="Layer 1">
    <g>
      <rect x="51.92" y="1.17" width="8.16" height="8.16" style="fill: #1d5292;"/>
      <rect x="95.27" y="16.91" width="7.48" height="7.48" style="fill: #349ea8;"/>
      <path d="M83.86,0c-3.6,0-5.82,3.29-5.92,5.92-.04,1.13.32,2.06.61,2.63-14.45,14.27-28.89,28.54-43.34,42.81-.75-.36-1.57-.58-2.46-.58-.76,0-1.49.16-2.16.43-6.22-6.43-12.44-12.86-18.66-19.29.37-.8.6-1.69.6-2.63,0-3.46-2.81-6.27-6.27-6.27S0,25.82,0,29.28s2.81,6.27,6.27,6.27c1.2,0,2.31-.35,3.26-.94,6.19,6.2,12.39,12.4,18.58,18.61-.63.91-1.01,2.02-1.01,3.22,0,3.13,2.54,5.66,5.66,5.66s5.66-2.53,5.66-5.66c0-.84-.2-1.63-.53-2.35,14.36-14.34,28.72-28.68,43.08-43.03.87.49,1.86.77,2.88.77,3.27,0,5.92-2.65,5.92-5.92s-2.65-5.92-5.92-5.92Z" style="fill: url(#d);"/>
      <polygon points="35.85 14.85 35.85 23.01 39.2 23.01 39.2 37 40.66 37 40.66 23.01 44.01 23.01 44.01 14.85 35.85 14.85" style="fill: url(#e);"/>
      <path d="M83.46,28.66c-2.4,0-4.37,1.77-4.72,4.07h-12.06v1.46h12.06c.35,2.3,2.33,4.07,4.72,4.07,2.65,0,4.8-2.15,4.8-4.8s-2.15-4.8-4.8-4.8Z" style="fill: url(#f);"/>
    </g>
  </g>
</svg>