<?xml version="1.0" encoding="utf-8"?>
<!-- Generator: Adobe Illustrator 28.4.1, SVG Export Plug-In . SVG Version: 6.00 Build 0)  -->
<svg version="1.1" id="Camada_1" xmlns="http://www.w3.org/2000/svg" xmlns:xlink="http://www.w3.org/1999/xlink" x="0px" y="0px"
	 viewBox="0 0 1000 288.24" style="enable-background:new 0 0 1000 288.24;" xml:space="preserve">
<style type="text/css">
	.st0{fill:#04634B;}
	.st1{fill:#05E278;}
</style>
<g>
	<g>
		<path d="M420.71,94.92v22.62h-40.89v17.98h30.16v21.6h-30.16v40.02H351.4V94.92H420.71z"/>
		<path d="M501.4,101.38c8.07,4.3,14.28,10.32,18.63,18.05c4.35,7.73,6.53,16.58,6.53,26.54c0,9.86-2.2,18.66-6.6,26.39
			c-4.4,7.74-10.63,13.8-18.71,18.2c-8.07,4.4-17.42,6.6-28.06,6.6h-40.46V94.92h40.46C483.93,94.92,493.33,97.08,501.4,101.38z
			 M490.6,165.25c4.73-4.54,7.1-10.97,7.1-19.29c0-8.41-2.37-14.91-7.1-19.5c-4.74-4.59-11.26-6.89-19.58-6.89h-9.86v52.49h9.86
			C479.34,172.06,485.86,169.79,490.6,165.25z"/>
		<path d="M604.71,153.5c3.96,4.74,5.94,10.25,5.94,16.53c0,5.12-1.28,9.74-3.84,13.85c-2.56,4.11-6.31,7.35-11.24,9.71
			c-4.93,2.37-10.83,3.55-17.69,3.55H542.8V95.79h34.08c10.25,0,18.05,2.37,23.42,7.1c5.37,4.74,8.05,10.88,8.05,18.42
			c0,6.28-1.69,11.38-5.08,15.3c-3.38,3.92-7.74,6.65-13.05,8.19C595.92,145.87,600.75,148.77,604.71,153.5z M552.95,140.6h23.63
			c6.86,0,12.16-1.62,15.88-4.86c3.72-3.24,5.58-7.71,5.58-13.41c0-5.6-1.86-10-5.58-13.19c-3.72-3.19-9.16-4.79-16.31-4.79h-23.2
			V140.6z M594.35,183.37c4.11-3.48,6.16-8.27,6.16-14.36s-2.15-10.95-6.45-14.57c-4.3-3.62-10.08-5.44-17.33-5.44h-23.78v39.58
			h24.21C584.51,188.59,590.24,186.85,594.35,183.37z"/>
		<path d="M629.58,136.03c3.24-6.14,7.73-10.88,13.49-14.21c5.75-3.33,12.25-5,19.5-5c7.54,0,14.04,1.74,19.5,5.22
			c5.46,3.48,9.4,7.93,11.82,13.34v-17.4h10.15v79.17h-10.15V179.6c-2.51,5.42-6.5,9.88-11.96,13.41
			c-5.46,3.53-11.96,5.29-19.5,5.29c-7.16,0-13.61-1.69-19.36-5.08c-5.75-3.38-10.25-8.17-13.49-14.36
			c-3.24-6.18-4.86-13.34-4.86-21.46C624.72,149.3,626.34,142.17,629.58,136.03z M689.97,140.74c-2.61-4.83-6.16-8.55-10.66-11.17
			c-4.5-2.61-9.45-3.92-14.86-3.92c-5.61,0-10.63,1.26-15.08,3.77c-4.45,2.52-7.95,6.16-10.51,10.95
			c-2.56,4.79-3.84,10.46-3.84,17.04c0,6.48,1.28,12.16,3.84,17.04c2.56,4.88,6.07,8.6,10.51,11.17c4.45,2.56,9.47,3.84,15.08,3.84
			c5.41,0,10.37-1.31,14.86-3.92c4.5-2.61,8.05-6.33,10.66-11.16c2.61-4.83,3.92-10.44,3.92-16.82
			C693.89,151.18,692.58,145.58,689.97,140.74z"/>
		<path d="M787.55,125.3c5.99,5.85,8.99,14.33,8.99,25.45v46.4h-10v-45.24c0-8.6-2.15-15.18-6.45-19.72
			c-4.3-4.54-10.18-6.82-17.62-6.82c-7.64,0-13.73,2.42-18.27,7.25c-4.54,4.83-6.82,11.94-6.82,21.32v43.21h-10.15v-79.17h10.15
			v13.49c2.51-4.83,6.14-8.53,10.88-11.09c4.74-2.56,10.1-3.84,16.09-3.84C773.83,116.53,781.56,119.45,787.55,125.3z"/>
		<path d="M861.79,197.15l-32.62-35.52v35.52h-10.15V89.85h10.15v63.51l31.9-35.38h14.21l-37.56,39.44l37.85,39.73H861.79z"/>
	</g>
	
		<rect x="147.26" y="64.3" transform="matrix(0.7071 0.7071 -0.7071 0.7071 165.6069 -117.1932)" class="st0" width="154.01" height="154.01"/>
	<g>
		<g>
			<g>
				<path class="st1" d="M228.28,93.27v16.88h-35.25v18.24h26.38v16.39h-26.38v35h-21.08V93.27H228.28z"/>
			</g>
		</g>
		<g>
			<path class="st1" d="M255.14,120.91c6.82,3.62,12.1,8.69,15.84,15.22c3.74,6.53,5.61,14.07,5.61,22.62
				c0,8.46-1.87,15.98-5.61,22.55c-3.74,6.57-9.04,11.67-15.9,15.28c-6.86,3.62-14.81,5.42-23.85,5.42h-32.41v-86.52h32.41
				C240.35,115.48,248.32,117.29,255.14,120.91z M248.48,177.23c4.44-4.35,6.66-10.52,6.66-18.49c0-7.97-2.22-14.17-6.66-18.61
				c-4.44-4.44-10.64-6.66-18.61-6.66h-9.98v50.29h9.98C237.84,183.76,244.05,181.59,248.48,177.23z"/>
		</g>
	</g>
</g>
</svg>
